# xmcd
#
# Track frame offsets:
#	150
#	12619
#	27740
#	38684
#	55256
#	67218
#	82278
#	94981
#	105737
#	119396
#	138246
#	154160
#	163326
#	175606
#	188105
#	198927
#	212063
#	222655
#	238367
#	251851
#	269980
#	280625
#	293360
#	306799
#	326423
#	337470
#
# Disc length: 4647 seconds
# Revision: 0
# Processed by: cddbd v1.5.2PL0 Copyright (c) Steve Scherf et al.
# Submitted via: dBpowerAMP V12.0
#
DISCID=a712251a
DTITLE=Various Artist - The Very Best of Country Music
DYEAR=19
DGENRE=Vocal Country Music
TTITLE0=Charlie Walker - San Antonio Rose
TTITLE1=Merle Haggard-George Jones - Making Believe
TTITLE2=Willie Nelson - On the Road again
TTITLE3=Johnny Cash-June Carter Cash - The City of New Orleans
TTITLE4=Tammy Winette - Stand by your Man
TTITLE5=Ricky Staggs-Dolly Parton - A Vision of Mother
TTITLE6=Lynn Anderson - Rose Garden
TTITLE7=Frankie Laine - High Noon
TTITLE8=George Jones-Tammy Winette - Golden ring
TTITLE9=Bobbie Gentry - Ode to Billy Joe
TTITLE10=Merle Haggard-Willie Nelson - All the Soft Places to fall
TTITLE11=Frankie Laine - Rawhide
TTITLE12=Dan Fogelberg - Mountain Pass
TTITLE13=Annie Rattlesnake - Somewhere South of Macon
TTITLE14=George Jones-Tammy Winette - A Pair of Old sneakers
TTITLE15=B. J. Thomas - Raindrops keep fallin' on my Head
TTITLE16=Roger Miller - King of the Road
TTITLE17=Lacy Dalton-Earl Scruggs - Love Gone Gold
TTITLE18=J. Cash-W.Nelson-W.Jennings-K.Kristofferson - Highwayman
TTITLE19=Kris Kristofferson - Me and Bobby McGee
TTITLE20=The Byrds - You're still in my Mind
TTITLE21=D.Parton-T.Winette-L.Lynn - It wasn't God who Made Honky Tonk Angels
TTITLE22=Ricky Staggs - Crying my Heart out
TTITLE23=Marty Robbins - El Paso
TTITLE24=Johnny Horton - The Battle of New Orleans
TTITLE25=Earl Scruggs-Tomm T. Hall - There ain't Country Music on this Juke Box
EXTD=
EXTT0=
EXTT1=
EXTT2=
EXTT3=
EXTT4=
EXTT5=
EXTT6=
EXTT7=
EXTT8=
EXTT9=
EXTT10=
EXTT11=
EXTT12=
EXTT13=
EXTT14=
EXTT15=
EXTT16=
EXTT17=
EXTT18=
EXTT19=
EXTT20=
EXTT21=
EXTT22=
EXTT23=
EXTT24=
EXTT25=
PLAYORDER=
